<svg width="24" height="22" viewBox="0 0 24 22" fill="none" xmlns="http://www.w3.org/2000/svg">
<path d="M21.4806 21.5791H16.8606C15.8719 21.5791 15.0669 20.7741 15.0669 19.7854V12.8845C15.0669 12.6774 14.9006 12.5112 14.6935 12.5112H9.30645C9.09937 12.5112 8.93312 12.6774 8.93312 12.8845V19.7854C8.93312 20.7741 8.12812 21.5791 7.13937 21.5791H2.51937C1.53062 21.5791 0.725616 20.7741 0.725616 19.7854V10.4608C0.725616 9.52161 1.13687 8.63786 1.85145 8.0312L9.93645 1.17703C11.1294 0.164948 12.8648 0.164948 14.0577 1.17703L22.1485 8.03411C22.8631 8.64078 23.2744 9.52745 23.2744 10.4637V19.7883C23.2744 20.777 22.4694 21.582 21.4806 21.582V21.5791ZM9.30645 11.0937H14.6935C15.6823 11.0937 16.4873 11.8987 16.4873 12.8874V19.7883C16.4873 19.9954 16.6535 20.1616 16.8606 20.1616H21.4806C21.6877 20.1616 21.854 19.9954 21.854 19.7883V10.4637C21.854 9.94453 21.6265 9.45161 21.2298 9.1162L13.139 2.25911C12.4769 1.69911 11.5173 1.69911 10.8552 2.25911L2.7702 9.11328C2.37353 9.4487 2.14603 9.94161 2.14603 10.4608V19.7854C2.14603 19.9924 2.31228 20.1587 2.51937 20.1587H7.13937C7.34645 20.1587 7.5127 19.9924 7.5127 19.7854V12.8845C7.5127 11.8958 8.3177 11.0908 9.30645 11.0908V11.0937Z" fill="black"/>
</svg>
